<svg width="26" height="26" viewBox="0 0 26 26" fill="none" xmlns="http://www.w3.org/2000/svg">
    <rect width="26" height="26" rx="1" fill="#2AD058"/>
    <path fill-rule="evenodd" clip-rule="evenodd" d="M3.83369 11.4033V2L22.0375 2V11.4033H19.1249V14.0645L14.0278 11.4033V14.0645L8.93075 11.4033V14.0645L3.83369 11.4033ZM22.0375 22.0484H19.1249H14.0278H8.93075H3.83369V11.4033L3.83369 13L3.83369 24H22.0375V22.0484Z" fill="black"/>
    <path fill-rule="evenodd" clip-rule="evenodd" d="M11.1252 20.915H10.0302L7.61253 17.311V20.9389H6.58369V15.75H7.78887L10.0964 19.1742V15.75H11.1252V20.915ZM13.1854 18.944V20.915H12.0684V15.75H15.4782V16.6924H13.1854V18.0016H15.1254V18.944H13.1854ZM18.6655 20.915V16.7355H20.3337V15.75H15.8877V16.7355H17.5559V20.915H18.6655Z" fill="black"/>
    <path d="M20.3858 19.6818L20.0662 19.5149V20.9257H20.3858V19.6818Z" fill="white"/>
    <path d="M22.1747 20.1846C22.1747 19.7419 21.8362 19.4167 21.3987 19.4167C20.9634 19.4167 20.6268 19.7419 20.6268 20.1846C20.6268 20.6272 20.9634 20.9566 21.3987 20.9566C21.8362 20.9566 22.1747 20.6272 22.1747 20.1846Z" fill="white"/>
    <path d="M19.8103 20.7544C19.8103 20.6391 19.7304 20.5588 19.6148 20.5588C19.499 20.5588 19.417 20.6391 19.417 20.7544C19.417 20.8676 19.499 20.9479 19.6148 20.9479C19.7304 20.9479 19.8103 20.8676 19.8103 20.7544Z" fill="white"/>
    <path d="M20.9549 20.1846C20.9549 19.9128 21.1232 19.6967 21.3987 19.6967C21.6763 19.6967 21.8445 19.9128 21.8445 20.1846C21.8445 20.4563 21.6763 20.6766 21.3987 20.6766C21.1232 20.6766 20.9549 20.4563 20.9549 20.1846Z" fill="#2AD058"/>
</svg>